<?xml version="1.0" standalone="no"?><!DOCTYPE svg PUBLIC "-//W3C//DTD SVG 20010904//EN"
 "http://www.w3.org/TR/2001/REC-SVG-20010904/DTD/svg10.dtd"><svg version="1.0" xmlns="http://www.w3.org/2000/svg" width="512.000000pt" height="512.000000pt" viewBox="0 0 512.000000 512.000000" preserveAspectRatio="xMidYMid meet"><g transform="translate(0.000000,512.000000) scale(0.100000,-0.100000)" fill="#000000" stroke="none"><path d="M1750 5110 c-640 -70 -1197 -437 -1505 -990 -288 -519 -321 -1153
-89 -1696 198 -463 564 -830 1027 -1028 59 -25 117 -48 130 -51 17 -5 28 -22
46 -73 89 -252 293 -562 489 -743 706 -649 1740 -705 2499 -135 643 482 920
1326 692 2101 -56 188 -168 414 -291 586 -205 286 -507 521 -846 659 l-115 47
-56 134 c-101 241 -239 447 -421 629 -289 288 -641 469 -1050 541 -133 23
-384 32 -510 19z m460 -1099 c111 -37 229 -105 308 -177 l56 -50 -65 -24
c-517 -191 -938 -604 -1135 -1114 l-39 -99 -51 57 c-28 32 -65 81 -83 111
-207 341 -167 769 98 1057 112 122 261 211 425 254 81 22 108 24 241 21 138
-3 158 -6 245 -36z m1708 -1604 c99 -164 137 -314 130 -506 -5 -106 -11 -141
-37 -221 -156 -476 -655 -725 -1125 -561 -105 37 -261 134 -319 198 -17 20
-16 21 45 43 195 70 441 217 611 365 226 197 434 500 537 784 l24 65 50 -56
c28 -31 66 -81 84 -111z"/></g></svg>