<svg xmlns="http://www.w3.org/2000/svg" width="682.667" height="682.667" version="1.0" viewBox="0 0 512 512"><path d="M175 1C111 8 55.3 44.7 24.5 100c-28.8 51.9-32.1 115.3-8.9 169.6 19.8 46.3 56.4 83 102.7 102.8 5.9 2.5 11.7 4.8 13 5.1 1.7.5 2.8 2.2 4.6 7.3 8.9 25.2 29.3 56.2 48.9 74.3 70.6 64.9 174 70.5 249.9 13.5 64.3-48.2 92-132.6 69.2-210.1-5.6-18.8-16.8-41.4-29.1-58.6-20.5-28.6-50.7-52.1-84.6-65.9l-11.5-4.7-5.6-13.4C363 95.8 349.2 75.2 331 57c-28.9-28.8-64.1-46.9-105-54.1C212.7.6 187.6-.3 175 1zm46 109.9c11.1 3.7 22.9 10.5 30.8 17.7l5.6 5-6.5 2.4c-51.7 19.1-93.8 60.4-113.5 111.4l-3.9 9.9-5.1-5.7c-2.8-3.2-6.5-8.1-8.3-11.1-20.7-34.1-16.7-76.9 9.8-105.7 11.2-12.2 26.1-21.1 42.5-25.4 8.1-2.2 10.8-2.4 24.1-2.1 13.8.3 15.8.6 24.5 3.6zm170.8 160.4c9.9 16.4 13.7 31.4 13 50.6-.5 10.6-1.1 14.1-3.7 22.1-15.6 47.6-65.5 72.5-112.5 56.1-10.5-3.7-26.1-13.4-31.9-19.8-1.7-2-1.6-2.1 4.5-4.3 19.5-7 44.1-21.7 61.1-36.5 22.6-19.7 43.4-50 53.7-78.4l2.4-6.5 5 5.6c2.8 3.1 6.6 8.1 8.4 11.1z"/></svg>